<mxfile host="app.diagrams.net" modified="2023-11-09T03:20:15.781Z" agent="Mozilla/5.0 (Windows NT 10.0; Win64; x64) AppleWebKit/537.36 (KHTML, like Gecko) Chrome/121.0.0.0 Safari/537.36" etag="-_qf5rEQJOWA9iSTAk-S" version="22.1.0" type="github">
  <diagram id="wFE0QG_FPsp0jaGvCLVb" name="Page-1">
    <mxGraphModel dx="3376" dy="1190" grid="1" gridSize="10" guides="1" tooltips="1" connect="1" arrows="1" fold="1" page="1" pageScale="1" pageWidth="850" pageHeight="1100" math="0" shadow="0">
      <root>
        <mxCell id="0" />
        <mxCell id="1" parent="0" />
        <mxCell id="YxoRx1nfqQLFb9uAYnke-8" value="" style="edgeStyle=orthogonalEdgeStyle;rounded=0;orthogonalLoop=1;jettySize=auto;html=1;" edge="1" parent="1" source="YxoRx1nfqQLFb9uAYnke-6" target="YxoRx1nfqQLFb9uAYnke-7">
          <mxGeometry relative="1" as="geometry" />
        </mxCell>
        <mxCell id="YxoRx1nfqQLFb9uAYnke-9" value="settle&amp;nbsp; consumer" style="edgeLabel;html=1;align=center;verticalAlign=middle;resizable=0;points=[];" vertex="1" connectable="0" parent="YxoRx1nfqQLFb9uAYnke-8">
          <mxGeometry x="-0.2" y="4" relative="1" as="geometry">
            <mxPoint as="offset" />
          </mxGeometry>
        </mxCell>
        <mxCell id="YxoRx1nfqQLFb9uAYnke-6" value="question_finished&lt;br&gt;message" style="strokeWidth=2;html=1;shape=mxgraph.flowchart.start_1;whiteSpace=wrap;" vertex="1" parent="1">
          <mxGeometry x="160" y="40" width="100" height="60" as="geometry" />
        </mxCell>
        <mxCell id="YxoRx1nfqQLFb9uAYnke-11" value="" style="edgeStyle=orthogonalEdgeStyle;rounded=0;orthogonalLoop=1;jettySize=auto;html=1;" edge="1" parent="1" source="YxoRx1nfqQLFb9uAYnke-7" target="YxoRx1nfqQLFb9uAYnke-10">
          <mxGeometry relative="1" as="geometry" />
        </mxCell>
        <mxCell id="YxoRx1nfqQLFb9uAYnke-7" value="store settle schedule" style="shape=parallelogram;perimeter=parallelogramPerimeter;whiteSpace=wrap;html=1;fixedSize=1;strokeWidth=2;" vertex="1" parent="1">
          <mxGeometry x="135" y="180" width="150" height="50" as="geometry" />
        </mxCell>
        <mxCell id="YxoRx1nfqQLFb9uAYnke-16" value="" style="edgeStyle=orthogonalEdgeStyle;rounded=0;orthogonalLoop=1;jettySize=auto;html=1;" edge="1" parent="1" source="YxoRx1nfqQLFb9uAYnke-10" target="YxoRx1nfqQLFb9uAYnke-15">
          <mxGeometry relative="1" as="geometry" />
        </mxCell>
        <mxCell id="YxoRx1nfqQLFb9uAYnke-10" value="ack" style="shape=parallelogram;perimeter=parallelogramPerimeter;whiteSpace=wrap;html=1;fixedSize=1;strokeWidth=2;" vertex="1" parent="1">
          <mxGeometry x="150" y="270" width="120" height="40" as="geometry" />
        </mxCell>
        <mxCell id="YxoRx1nfqQLFb9uAYnke-12" value="end" style="strokeWidth=2;html=1;shape=mxgraph.flowchart.terminator;whiteSpace=wrap;" vertex="1" parent="1">
          <mxGeometry x="160" y="420" width="100" height="60" as="geometry" />
        </mxCell>
        <mxCell id="YxoRx1nfqQLFb9uAYnke-19" value="" style="edgeStyle=orthogonalEdgeStyle;rounded=0;orthogonalLoop=1;jettySize=auto;html=1;" edge="1" parent="1" source="YxoRx1nfqQLFb9uAYnke-14" target="YxoRx1nfqQLFb9uAYnke-18">
          <mxGeometry relative="1" as="geometry" />
        </mxCell>
        <mxCell id="YxoRx1nfqQLFb9uAYnke-14" value="schedule" style="rounded=1;whiteSpace=wrap;html=1;absoluteArcSize=1;arcSize=14;strokeWidth=2;" vertex="1" parent="1">
          <mxGeometry x="390" y="60" width="200" height="50" as="geometry" />
        </mxCell>
        <mxCell id="YxoRx1nfqQLFb9uAYnke-17" value="" style="edgeStyle=orthogonalEdgeStyle;rounded=0;orthogonalLoop=1;jettySize=auto;html=1;" edge="1" parent="1" source="YxoRx1nfqQLFb9uAYnke-15" target="YxoRx1nfqQLFb9uAYnke-12">
          <mxGeometry relative="1" as="geometry" />
        </mxCell>
        <mxCell id="YxoRx1nfqQLFb9uAYnke-15" value="send&amp;nbsp;question_settle&lt;br&gt;message" style="shape=parallelogram;perimeter=parallelogramPerimeter;whiteSpace=wrap;html=1;fixedSize=1;strokeWidth=2;" vertex="1" parent="1">
          <mxGeometry x="115" y="350" width="190" height="30" as="geometry" />
        </mxCell>
        <mxCell id="YxoRx1nfqQLFb9uAYnke-21" value="" style="edgeStyle=orthogonalEdgeStyle;rounded=0;orthogonalLoop=1;jettySize=auto;html=1;" edge="1" parent="1" source="YxoRx1nfqQLFb9uAYnke-18" target="YxoRx1nfqQLFb9uAYnke-20">
          <mxGeometry relative="1" as="geometry" />
        </mxCell>
        <mxCell id="YxoRx1nfqQLFb9uAYnke-18" value="find task in settle_schedule table" style="whiteSpace=wrap;html=1;rounded=1;arcSize=14;strokeWidth=2;" vertex="1" parent="1">
          <mxGeometry x="430" y="150" width="120" height="60" as="geometry" />
        </mxCell>
        <mxCell id="YxoRx1nfqQLFb9uAYnke-23" value="" style="edgeStyle=orthogonalEdgeStyle;rounded=0;orthogonalLoop=1;jettySize=auto;html=1;" edge="1" parent="1" source="YxoRx1nfqQLFb9uAYnke-20" target="YxoRx1nfqQLFb9uAYnke-22">
          <mxGeometry relative="1" as="geometry" />
        </mxCell>
        <mxCell id="YxoRx1nfqQLFb9uAYnke-20" value="send question_settle&lt;br&gt;message" style="whiteSpace=wrap;html=1;rounded=1;arcSize=14;strokeWidth=2;" vertex="1" parent="1">
          <mxGeometry x="430" y="240" width="120" height="60" as="geometry" />
        </mxCell>
        <mxCell id="YxoRx1nfqQLFb9uAYnke-22" value="end" style="strokeWidth=2;html=1;shape=mxgraph.flowchart.terminator;whiteSpace=wrap;" vertex="1" parent="1">
          <mxGeometry x="440" y="340" width="100" height="60" as="geometry" />
        </mxCell>
        <mxCell id="YxoRx1nfqQLFb9uAYnke-29" value="" style="edgeStyle=orthogonalEdgeStyle;rounded=0;orthogonalLoop=1;jettySize=auto;html=1;" edge="1" parent="1" source="YxoRx1nfqQLFb9uAYnke-25" target="YxoRx1nfqQLFb9uAYnke-28">
          <mxGeometry relative="1" as="geometry" />
        </mxCell>
        <mxCell id="YxoRx1nfqQLFb9uAYnke-25" value="receive&amp;nbsp;&lt;br&gt;question_settle &lt;br&gt;message" style="strokeWidth=2;html=1;shape=mxgraph.flowchart.start_1;whiteSpace=wrap;" vertex="1" parent="1">
          <mxGeometry x="160" y="590" width="100" height="60" as="geometry" />
        </mxCell>
        <mxCell id="YxoRx1nfqQLFb9uAYnke-31" value="" style="edgeStyle=orthogonalEdgeStyle;rounded=0;orthogonalLoop=1;jettySize=auto;html=1;" edge="1" parent="1" source="YxoRx1nfqQLFb9uAYnke-28" target="YxoRx1nfqQLFb9uAYnke-30">
          <mxGeometry relative="1" as="geometry" />
        </mxCell>
        <mxCell id="YxoRx1nfqQLFb9uAYnke-48" value="&amp;lt;3&lt;br&gt;" style="edgeLabel;html=1;align=center;verticalAlign=middle;resizable=0;points=[];" vertex="1" connectable="0" parent="YxoRx1nfqQLFb9uAYnke-31">
          <mxGeometry x="-0.3143" y="1" relative="1" as="geometry">
            <mxPoint as="offset" />
          </mxGeometry>
        </mxCell>
        <mxCell id="YxoRx1nfqQLFb9uAYnke-52" value="" style="edgeStyle=orthogonalEdgeStyle;rounded=0;orthogonalLoop=1;jettySize=auto;html=1;entryX=1;entryY=0.75;entryDx=0;entryDy=0;" edge="1" parent="1" source="YxoRx1nfqQLFb9uAYnke-28" target="YxoRx1nfqQLFb9uAYnke-36">
          <mxGeometry relative="1" as="geometry">
            <mxPoint x="210" y="855" as="targetPoint" />
            <Array as="points">
              <mxPoint x="210" y="1165" />
            </Array>
          </mxGeometry>
        </mxCell>
        <mxCell id="YxoRx1nfqQLFb9uAYnke-53" value="=3&lt;br&gt;" style="edgeLabel;html=1;align=center;verticalAlign=middle;resizable=0;points=[];" vertex="1" connectable="0" parent="YxoRx1nfqQLFb9uAYnke-52">
          <mxGeometry x="-0.7204" y="-2" relative="1" as="geometry">
            <mxPoint as="offset" />
          </mxGeometry>
        </mxCell>
        <mxCell id="YxoRx1nfqQLFb9uAYnke-55" value="" style="edgeStyle=orthogonalEdgeStyle;rounded=0;orthogonalLoop=1;jettySize=auto;html=1;entryX=1;entryY=0.75;entryDx=0;entryDy=0;exitX=0.5;exitY=1;exitDx=0;exitDy=0;exitPerimeter=0;" edge="1" parent="1" source="YxoRx1nfqQLFb9uAYnke-28" target="YxoRx1nfqQLFb9uAYnke-38">
          <mxGeometry relative="1" as="geometry">
            <mxPoint x="245" y="1290" as="targetPoint" />
            <Array as="points">
              <mxPoint x="210" y="1305" />
            </Array>
          </mxGeometry>
        </mxCell>
        <mxCell id="YxoRx1nfqQLFb9uAYnke-56" value="=4&lt;br&gt;" style="edgeLabel;html=1;align=center;verticalAlign=middle;resizable=0;points=[];" vertex="1" connectable="0" parent="YxoRx1nfqQLFb9uAYnke-55">
          <mxGeometry x="0.7649" y="-1" relative="1" as="geometry">
            <mxPoint as="offset" />
          </mxGeometry>
        </mxCell>
        <mxCell id="YxoRx1nfqQLFb9uAYnke-28" value="stage" style="strokeWidth=2;html=1;shape=mxgraph.flowchart.decision;whiteSpace=wrap;" vertex="1" parent="1">
          <mxGeometry x="160" y="680" width="100" height="90" as="geometry" />
        </mxCell>
        <mxCell id="YxoRx1nfqQLFb9uAYnke-33" value="" style="edgeStyle=orthogonalEdgeStyle;rounded=0;orthogonalLoop=1;jettySize=auto;html=1;" edge="1" parent="1" source="YxoRx1nfqQLFb9uAYnke-30" target="YxoRx1nfqQLFb9uAYnke-32">
          <mxGeometry relative="1" as="geometry" />
        </mxCell>
        <mxCell id="YxoRx1nfqQLFb9uAYnke-30" value="stage=1&lt;br&gt;fetch data" style="whiteSpace=wrap;html=1;strokeWidth=2;" vertex="1" parent="1">
          <mxGeometry x="-30" y="700" width="120" height="60" as="geometry" />
        </mxCell>
        <mxCell id="YxoRx1nfqQLFb9uAYnke-35" value="" style="edgeStyle=orthogonalEdgeStyle;rounded=0;orthogonalLoop=1;jettySize=auto;html=1;" edge="1" parent="1" source="YxoRx1nfqQLFb9uAYnke-32" target="YxoRx1nfqQLFb9uAYnke-34">
          <mxGeometry relative="1" as="geometry" />
        </mxCell>
        <mxCell id="YxoRx1nfqQLFb9uAYnke-32" value="stage=2&lt;br&gt;calculate" style="whiteSpace=wrap;html=1;strokeWidth=2;" vertex="1" parent="1">
          <mxGeometry x="-30" y="840" width="120" height="60" as="geometry" />
        </mxCell>
        <mxCell id="YxoRx1nfqQLFb9uAYnke-37" value="" style="edgeStyle=orthogonalEdgeStyle;rounded=0;orthogonalLoop=1;jettySize=auto;html=1;" edge="1" parent="1" source="YxoRx1nfqQLFb9uAYnke-34" target="YxoRx1nfqQLFb9uAYnke-36">
          <mxGeometry relative="1" as="geometry" />
        </mxCell>
        <mxCell id="YxoRx1nfqQLFb9uAYnke-34" value="stage=3&lt;br&gt;store" style="whiteSpace=wrap;html=1;strokeWidth=2;" vertex="1" parent="1">
          <mxGeometry x="-30" y="980" width="120" height="60" as="geometry" />
        </mxCell>
        <mxCell id="YxoRx1nfqQLFb9uAYnke-39" value="" style="edgeStyle=orthogonalEdgeStyle;rounded=0;orthogonalLoop=1;jettySize=auto;html=1;" edge="1" parent="1" source="YxoRx1nfqQLFb9uAYnke-36" target="YxoRx1nfqQLFb9uAYnke-38">
          <mxGeometry relative="1" as="geometry" />
        </mxCell>
        <mxCell id="YxoRx1nfqQLFb9uAYnke-36" value="stage=4&lt;br&gt;risk" style="whiteSpace=wrap;html=1;strokeWidth=2;" vertex="1" parent="1">
          <mxGeometry x="-30" y="1120" width="120" height="60" as="geometry" />
        </mxCell>
        <mxCell id="YxoRx1nfqQLFb9uAYnke-73" value="" style="edgeStyle=orthogonalEdgeStyle;rounded=0;orthogonalLoop=1;jettySize=auto;html=1;" edge="1" parent="1" source="YxoRx1nfqQLFb9uAYnke-38" target="YxoRx1nfqQLFb9uAYnke-72">
          <mxGeometry relative="1" as="geometry" />
        </mxCell>
        <mxCell id="YxoRx1nfqQLFb9uAYnke-38" value="find unassign data" style="whiteSpace=wrap;html=1;strokeWidth=2;" vertex="1" parent="1">
          <mxGeometry x="-30" y="1260" width="120" height="60" as="geometry" />
        </mxCell>
        <mxCell id="YxoRx1nfqQLFb9uAYnke-42" value="end" style="strokeWidth=2;html=1;shape=mxgraph.flowchart.terminator;whiteSpace=wrap;" vertex="1" parent="1">
          <mxGeometry x="-40" y="1760" width="100" height="60" as="geometry" />
        </mxCell>
        <mxCell id="YxoRx1nfqQLFb9uAYnke-47" value="" style="edgeStyle=orthogonalEdgeStyle;rounded=0;orthogonalLoop=1;jettySize=auto;html=1;" edge="1" parent="1" source="YxoRx1nfqQLFb9uAYnke-45" target="YxoRx1nfqQLFb9uAYnke-42">
          <mxGeometry relative="1" as="geometry" />
        </mxCell>
        <mxCell id="YxoRx1nfqQLFb9uAYnke-45" value="record execute history" style="whiteSpace=wrap;html=1;strokeWidth=2;" vertex="1" parent="1">
          <mxGeometry x="-50" y="1610" width="120" height="60" as="geometry" />
        </mxCell>
        <mxCell id="YxoRx1nfqQLFb9uAYnke-59" value="" style="edgeStyle=orthogonalEdgeStyle;rounded=0;orthogonalLoop=1;jettySize=auto;html=1;" edge="1" parent="1" source="YxoRx1nfqQLFb9uAYnke-57" target="YxoRx1nfqQLFb9uAYnke-58">
          <mxGeometry relative="1" as="geometry" />
        </mxCell>
        <mxCell id="YxoRx1nfqQLFb9uAYnke-57" value="receive questionFinishAssign&amp;nbsp;&lt;br&gt;message" style="strokeWidth=2;html=1;shape=mxgraph.flowchart.start_1;whiteSpace=wrap;" vertex="1" parent="1">
          <mxGeometry x="510" y="620" width="150" height="60" as="geometry" />
        </mxCell>
        <mxCell id="YxoRx1nfqQLFb9uAYnke-61" value="" style="edgeStyle=orthogonalEdgeStyle;rounded=0;orthogonalLoop=1;jettySize=auto;html=1;" edge="1" parent="1" source="YxoRx1nfqQLFb9uAYnke-58" target="YxoRx1nfqQLFb9uAYnke-60">
          <mxGeometry relative="1" as="geometry" />
        </mxCell>
        <mxCell id="YxoRx1nfqQLFb9uAYnke-58" value="update&amp;nbsp;&lt;br&gt;UserQuestionOpt&lt;br&gt;&amp;nbsp;" style="whiteSpace=wrap;html=1;strokeWidth=2;" vertex="1" parent="1">
          <mxGeometry x="525" y="760" width="120" height="60" as="geometry" />
        </mxCell>
        <mxCell id="YxoRx1nfqQLFb9uAYnke-63" value="" style="edgeStyle=orthogonalEdgeStyle;rounded=0;orthogonalLoop=1;jettySize=auto;html=1;" edge="1" parent="1" source="YxoRx1nfqQLFb9uAYnke-60" target="YxoRx1nfqQLFb9uAYnke-62">
          <mxGeometry relative="1" as="geometry" />
        </mxCell>
        <mxCell id="YxoRx1nfqQLFb9uAYnke-60" value="update&amp;nbsp;userStat" style="whiteSpace=wrap;html=1;strokeWidth=2;" vertex="1" parent="1">
          <mxGeometry x="525" y="900" width="120" height="60" as="geometry" />
        </mxCell>
        <mxCell id="YxoRx1nfqQLFb9uAYnke-65" value="" style="edgeStyle=orthogonalEdgeStyle;rounded=0;orthogonalLoop=1;jettySize=auto;html=1;" edge="1" parent="1" source="YxoRx1nfqQLFb9uAYnke-62" target="YxoRx1nfqQLFb9uAYnke-64">
          <mxGeometry relative="1" as="geometry" />
        </mxCell>
        <mxCell id="YxoRx1nfqQLFb9uAYnke-62" value="send points_share&lt;br&gt;message" style="whiteSpace=wrap;html=1;strokeWidth=2;" vertex="1" parent="1">
          <mxGeometry x="525" y="1040" width="120" height="60" as="geometry" />
        </mxCell>
        <mxCell id="YxoRx1nfqQLFb9uAYnke-67" value="" style="edgeStyle=orthogonalEdgeStyle;rounded=0;orthogonalLoop=1;jettySize=auto;html=1;" edge="1" parent="1" source="YxoRx1nfqQLFb9uAYnke-64" target="YxoRx1nfqQLFb9uAYnke-66">
          <mxGeometry relative="1" as="geometry" />
        </mxCell>
        <mxCell id="YxoRx1nfqQLFb9uAYnke-64" value="send stationMessage" style="whiteSpace=wrap;html=1;strokeWidth=2;" vertex="1" parent="1">
          <mxGeometry x="525" y="1180" width="120" height="60" as="geometry" />
        </mxCell>
        <mxCell id="YxoRx1nfqQLFb9uAYnke-66" value="end" style="strokeWidth=2;html=1;shape=mxgraph.flowchart.terminator;whiteSpace=wrap;" vertex="1" parent="1">
          <mxGeometry x="535" y="1290" width="100" height="60" as="geometry" />
        </mxCell>
        <mxCell id="YxoRx1nfqQLFb9uAYnke-76" value="" style="edgeStyle=orthogonalEdgeStyle;rounded=0;orthogonalLoop=1;jettySize=auto;html=1;" edge="1" parent="1" source="YxoRx1nfqQLFb9uAYnke-72" target="YxoRx1nfqQLFb9uAYnke-75">
          <mxGeometry relative="1" as="geometry" />
        </mxCell>
        <mxCell id="YxoRx1nfqQLFb9uAYnke-81" value="&amp;gt;0" style="edgeLabel;html=1;align=center;verticalAlign=middle;resizable=0;points=[];" vertex="1" connectable="0" parent="YxoRx1nfqQLFb9uAYnke-76">
          <mxGeometry x="-0.1167" y="1" relative="1" as="geometry">
            <mxPoint as="offset" />
          </mxGeometry>
        </mxCell>
        <mxCell id="YxoRx1nfqQLFb9uAYnke-79" value="" style="edgeStyle=orthogonalEdgeStyle;rounded=0;orthogonalLoop=1;jettySize=auto;html=1;" edge="1" parent="1" source="YxoRx1nfqQLFb9uAYnke-72" target="YxoRx1nfqQLFb9uAYnke-78">
          <mxGeometry relative="1" as="geometry" />
        </mxCell>
        <mxCell id="YxoRx1nfqQLFb9uAYnke-80" value="=0" style="edgeLabel;html=1;align=center;verticalAlign=middle;resizable=0;points=[];" vertex="1" connectable="0" parent="YxoRx1nfqQLFb9uAYnke-79">
          <mxGeometry x="-0.4857" relative="1" as="geometry">
            <mxPoint as="offset" />
          </mxGeometry>
        </mxCell>
        <mxCell id="YxoRx1nfqQLFb9uAYnke-72" value="cnt" style="strokeWidth=2;html=1;shape=mxgraph.flowchart.decision;whiteSpace=wrap;" vertex="1" parent="1">
          <mxGeometry x="-20" y="1360" width="100" height="100" as="geometry" />
        </mxCell>
        <mxCell id="YxoRx1nfqQLFb9uAYnke-83" value="" style="edgeStyle=orthogonalEdgeStyle;rounded=0;orthogonalLoop=1;jettySize=auto;html=1;entryX=0;entryY=0.5;entryDx=0;entryDy=0;" edge="1" parent="1" source="YxoRx1nfqQLFb9uAYnke-75" target="YxoRx1nfqQLFb9uAYnke-45">
          <mxGeometry relative="1" as="geometry">
            <mxPoint x="-200" y="1520" as="targetPoint" />
            <Array as="points">
              <mxPoint x="-200" y="1640" />
            </Array>
          </mxGeometry>
        </mxCell>
        <mxCell id="YxoRx1nfqQLFb9uAYnke-75" value="send questionFinishAssign&lt;br&gt;message" style="whiteSpace=wrap;html=1;strokeWidth=2;" vertex="1" parent="1">
          <mxGeometry x="-260" y="1380" width="120" height="60" as="geometry" />
        </mxCell>
        <mxCell id="YxoRx1nfqQLFb9uAYnke-85" value="" style="edgeStyle=orthogonalEdgeStyle;rounded=0;orthogonalLoop=1;jettySize=auto;html=1;entryX=1;entryY=0.5;entryDx=0;entryDy=0;" edge="1" parent="1" source="YxoRx1nfqQLFb9uAYnke-78" target="YxoRx1nfqQLFb9uAYnke-45">
          <mxGeometry relative="1" as="geometry">
            <mxPoint x="210" y="1520" as="targetPoint" />
            <Array as="points">
              <mxPoint x="210" y="1640" />
            </Array>
          </mxGeometry>
        </mxCell>
        <mxCell id="YxoRx1nfqQLFb9uAYnke-78" value="update&lt;br&gt;question.prize_status&lt;br&gt;settle_schedule.state" style="whiteSpace=wrap;html=1;strokeWidth=2;" vertex="1" parent="1">
          <mxGeometry x="150" y="1380" width="120" height="60" as="geometry" />
        </mxCell>
      </root>
    </mxGraphModel>
  </diagram>
</mxfile>
